<?xml version="1.0" encoding="utf-8"?>
<!-- Generator: Adobe Illustrator 27.0.1, SVG Export Plug-In . SVG Version: 6.00 Build 0)  -->
<svg version="1.1" id="Color" xmlns="http://www.w3.org/2000/svg" xmlns:xlink="http://www.w3.org/1999/xlink" x="0px" y="0px"
	 viewBox="0 0 24 24" enable-background="new 0 0 24 24" xml:space="preserve">
<path fill="#CCCCCC" d="M20,4H4v16h16V4L20,4z M13.1,13.7C13,13.9,13,14.3,13,14.8h-2.4c0-1,0.1-1.7,0.3-2.1s0.6-0.8,1.2-1.3
	l0.7-0.5c0.2-0.2,0.4-0.3,0.5-0.5c0.2-0.3,0.4-0.7,0.4-1.1c0-0.5-0.1-0.9-0.4-1.2c-0.3-0.4-0.8-0.6-1.5-0.6c-0.7,0-1.2,0.2-1.5,0.7
	C10,8.6,9.8,9.1,9.8,9.6H7.3C7.3,7.9,7.9,6.6,9,5.9c0.7-0.5,1.6-0.7,2.6-0.7c1.3,0,2.5,0.3,3.4,1s1.3,1.6,1.3,2.9
	c0,0.8-0.2,1.4-0.6,2c-0.2,0.3-0.7,0.7-1.3,1.2l-0.6,0.5C13.5,13,13.2,13.4,13.1,13.7z M13.2,18.6h-2.7V16h2.7V18.6z"/>
</svg>
